<svg id="图层_4" data-name="图层 4" xmlns="http://www.w3.org/2000/svg" xmlns:xlink="http://www.w3.org/1999/xlink" viewBox="0 0 1280 1280"><defs><style>.cls-1{fill:url(#未命名的渐变_21);}.cls-2{fill:url(#未命名的渐变_21-2);}.cls-3{fill:url(#未命名的渐变_21-3);}.cls-4{fill:url(#未命名的渐变_21-4);}</style><linearGradient id="未命名的渐变_21" x1="571.22" y1="637.77" x2="706.39" y2="637.77" gradientUnits="userSpaceOnUse"><stop offset="0" stop-color="#6f81ff"/><stop offset="0.16" stop-color="#6e8afd"/><stop offset="0.43" stop-color="#6ba4f9"/><stop offset="0.77" stop-color="#66cdf2"/><stop offset="1" stop-color="#62eced"/></linearGradient><linearGradient id="未命名的渐变_21-2" x1="253.04" y1="867.15" x2="610.5" y2="867.15" xlink:href="#未命名的渐变_21"/><linearGradient id="未命名的渐变_21-3" x1="299.32" y1="681.68" x2="1022" y2="681.68" xlink:href="#未命名的渐变_21"/><linearGradient id="未命名的渐变_21-4" x1="324.52" y1="261.95" x2="720.27" y2="261.95" xlink:href="#未命名的渐变_21"/></defs><path class="cls-1" d="M638.81,570.19a67.58,67.58,0,1,0,67.58,67.58A67.59,67.59,0,0,0,638.81,570.19Z"/><path class="cls-2" d="M559.73,944.53a163.67,163.67,0,0,1-70.36,15.69c-91.07,0-165.17-74.1-165.17-165.17a165.62,165.62,0,0,1,6.64-46.53,35.58,35.58,0,1,0-68.3-20,236.51,236.51,0,0,0-9.5,66.53c0,130.31,106,236.33,236.33,236.33a234.2,234.2,0,0,0,100.72-22.49,35.58,35.58,0,0,0-30.36-64.36Z"/><path class="cls-3" d="M1013.87,728.7a35.58,35.58,0,0,0-68.71,18.52,165.76,165.76,0,0,1,5.68,43.14c0,91.07-74.09,165.17-165.16,165.17A164.4,164.4,0,0,1,698,930.27L521.62,755.77h0a165.29,165.29,0,0,1-22-203.27,35.78,35.78,0,0,0,2-3.8,771.33,771.33,0,0,1,209.44-57.1A165.38,165.38,0,0,1,779,728.12a167.18,167.18,0,0,1-27.13,32.64c-.24.22-.41.47-.64.69l-77.38,77.39a35.59,35.59,0,0,0,50.32,50.33l78.91-78.91c.14-.14.25-.29.39-.43a236.72,236.72,0,0,0,72-169.8c0-1.13-.07-2.24-.17-3.35a236.15,236.15,0,0,0-56.12-149.55c16.7.8,32.93,2.32,48.48,4.64a35.58,35.58,0,0,0,10.52-70.38c-36.67-5.48-76.35-7.19-117.55-5.32L752.11,384l.29-.08-5.29-20.41c-.1-.4-.19-.8-.3-1.19l-3.33-12.81c-.14-.58-.26-1-.36-1.42l-.08-.3,0-.08c-.16-.56-.27-.84-.27-.84a10.56,10.56,0,0,0-.53-1.31c-.1-.23-.21-.45-.32-.67-.38-.73-.71-1.27-.71-1.27-.11-.16-.23-.27-.34-.42s-.31-.39-.47-.58a13.63,13.63,0,0,0-1.24-1.34l-.42-.37a16.6,16.6,0,0,0-1.94-1.42,13.25,13.25,0,0,0-4.23-1.59c-.25-.08-1.23-.24-2.19-.39l-.75-.11-1.34-.19-1.77-.14c-.24,0-.47-.05-.72-.06l-2-.17-4.95-.16-6.33,0c-.78,0-2,.08-2,.08h-.26l-2,.17L694.08,338l.22.06a839.49,839.49,0,0,0-285,78.75l.13-.14-14.73,7.27s-1.12.58-1.8,1l-5.45,3.23-4.17,2.66-3.67,2.6s-3,2.35-3.33,2.76a13.63,13.63,0,0,0-2.83,3.52,14.14,14.14,0,0,0-1.7,5.81,20.89,20.89,0,0,0,.17,2.76l0,.49.12.45c0,.09.13.52.31,1.22l5,19.49.05,0,14.66,55.21c-29.72,17.75-56.86,37.11-80.58,57.81a35.59,35.59,0,0,0,46.8,53.62,462.83,462.83,0,0,1,48.46-36.7,237.41,237.41,0,0,0-3.46,40.39,235,235,0,0,0,61.49,159,35.65,35.65,0,0,0,3.15,3.62L650.22,983.1c.21.21.43.38.64.58a35.93,35.93,0,0,0,5.78,4.7,235.5,235.5,0,0,0,129,38.31c130.31,0,236.32-106,236.32-236.33A236.79,236.79,0,0,0,1013.87,728.7Z"/><path class="cls-4" d="M326.6,285.81a1.77,1.77,0,0,0,0,.23l9.74,34.43,3.13,11.1h0l10.47,37a2.84,2.84,0,0,0,4,1.8l31-14.66a2.38,2.38,0,0,0,.49-.34,35.78,35.78,0,0,0,4.67-2c46.48-24.15,97.74-43.66,152.35-58a740.81,740.81,0,0,1,135.49-22.87c1.08-.08,2.13-.32,3.19-.49l0,.11,36.58-4.07a2.84,2.84,0,0,0,2.42-3.6l-10-35.32c-.19-.85-.43-1.67-.68-2.5l0-.1-13.24-46.69c-.13-.48-.26-1-.41-1.43l-.28-1h-.06a35.6,35.6,0,0,0-36.24-24.07,810.74,810.74,0,0,0-148.5,25C451,194,394.82,215.47,343.66,242.06a35.56,35.56,0,0,0-17.43,42.44Z"/></svg>